<?xml version="1.0" standalone="no"?>
 <!DOCTYPE svg PUBLIC "-//W3C//DTD SVG 1.1//EN" "http://www.w3.org/Graphics/SVG/1.1/DTD/svg11.dtd"> 
 <svg width="800" height="600" version="1.1" xmlns="http://www.w3.org/2000/svg">
 <rect x=" 4   " y=" 3   " width=" 795 " height=" 502 " stroke="cyan" stroke-width=" 1  " fill="blue"/>
 <rect x=" 2 " y=" 494 " width=" 798 " height=" 2 8 " stroke="green" stroke-width=" 1  " fill="green"/>
 <rect x=" 3 " y=" 498 " width=" 801 " height=" 110 " stroke="green" stroke-width=" 1  " fill="green"/>
 <circle cx=" 7 0 " cy=" 8 0 " r=" 122 " stroke="black" stroke-width=" 1  " fill="yellow"/>
 <rect x=" 147 " y=" 19  " width=" 27  " height=" 3   " stroke="black" stroke-width=" 1  " fill="yellow"/>
 <rect x=" 136 " y=" 59  " width=" 29  " height=" 10  " stroke="black" stroke-width=" 1  " fill="yellow"/>
 <rect x=" 104 " y=" 110 " width=" 34  " height=" 10  " stroke="black" stroke-width=" 1  " fill="yellow"/>
 <rect x=" 59  " y=" 139 " width=" 22  " height=" 35  " stroke="black" stroke-width=" 1  " fill="yellow"/>
 <rect x=" 22  " y=" 152 " width=" 13  " height=" 31  " stroke="black" stroke-width=" 1  " fill="yellow"/>
 <circle cx=" 370 " cy=" 38  " r=" 55  " stroke="cyan" stroke-width=" 1  " fill="white"/>
 <circle cx=" 447 " cy=" 35  " r=" 46  " stroke="cyan" stroke-width=" 1  " fill="white"/>
 <circle cx=" 478 " cy=" 84  " r=" 66  " stroke="cyan" stroke-width=" 1  " fill="white"/>
 <circle cx=" 536 " cy=" 21  " r=" 29  " stroke="cyan" stroke-width=" 1  " fill="white"/>
 <circle cx=" 569 " cy=" 63  " r=" 41  " stroke="cyan" stroke-width=" 1  " fill="white"/>
 <circle cx=" 513 " cy=" 25  " r=" 33  " stroke="cyan" stroke-width=" 1  " fill="white"/>
 <circle cx=" 437 " cy=" 53  " r=" 42  " stroke="cyan" stroke-width=" 1  " fill="white"/>
 <circle cx=" 419 " cy=" 105 " r=" 30  " stroke="cyan" stroke-width=" 1  " fill="white"/>
 <circle cx=" 543 " cy=" 80  " r=" 44  " stroke="cyan" stroke-width=" 1  " fill="white"/>
 <circle cx=" 624 " cy=" 19  " r=" 84  " stroke="cyan" stroke-width=" 1  " fill="white"/>
 <circle cx=" 687 " cy=" 77  " r=" 50  " stroke="cyan" stroke-width=" 1  " fill="white"/>
 <circle cx=" 622 " cy=" 89  " r=" 51  " stroke="cyan" stroke-width=" 1  " fill="white"/>
 <circle cx=" 590 " cy=" 34  " r=" 34  " stroke="cyan" stroke-width=" 1  " fill="white"/>
 <circle cx=" 645 " cy=" 29  " r=" 22  " stroke="cyan" stroke-width=" 1  " fill="white"/>
 <circle cx=" 687 " cy=" 16  " r=" 24  " stroke="cyan" stroke-width=" 1  " fill="white"/>
 <circle cx=" 395 " cy=" 35  " r=" 26  " stroke="cyan" stroke-width=" 1  " fill="white"/>
 <circle cx=" 505 " cy=" 81  " r=" 43  " stroke="cyan" stroke-width=" 1  " fill="white"/>
 <rect x=" 135 " y=" 329 " width=" 510 " height=" 102 " stroke="cyan" stroke-width=" 1  " fill="red"/>
 <rect x=" 645 " y=" 431 " width=" 1 " height=" 1 " stroke="cyan" stroke-width=" 1  " fill="red"/>
 <circle cx=" 210 " cy=" 454 " r=" 58  " stroke="cyan" stroke-width=" 1  " fill="black"/>
 <circle cx=" 591 " cy=" 457 " r=" 59  " stroke="cyan" stroke-width=" 1  " fill="black"/>
 <rect x=" 542 " y=" 243 " width=" 48  " height=" 90  " stroke="cyan" stroke-width=" 1  " fill="red"/>
 <rect x=" 401 " y=" 258 " width=" 50  " height=" 71  " stroke="yellow" stroke-width=" 1  " fill="yellow"/>
 <circle cx=" 426 " cy=" 228 " r=" 55  " stroke="yellow" stroke-width=" 1  " fill="yellow"/>
 <circle cx=" 464 " cy=" 210 " r=" 9 " stroke="yellow" stroke-width=" 1  " fill="black"/>
 <circle cx=" 472 " cy=" 260 " r=" 8 " stroke="yellow" stroke-width=" 1  " fill="black"/>
 <circle cx=" 465 " cy=" 257 " r=" 8 " stroke="yellow" stroke-width=" 1  " fill="black"/>
 <circle cx=" 462 " cy=" 255 " r=" 12  " stroke="yellow" stroke-width=" 1  " fill="black"/>
 <circle cx=" 477 " cy=" 260 " r=" 7 " stroke="black" stroke-width=" 1  " fill="black"/>
 <circle cx=" 466 " cy=" 265 " r=" 4 " stroke="black" stroke-width=" 1  " fill="black"/>
 <rect x=" 451 " y=" 287 " width=" 46  " height=" 12  " stroke="yellow" stroke-width=" 1  " fill="yellow"/>
 <rect x=" 527 " y=" 285 " width=" 16  " height=" 7   " stroke="black" stroke-width=" 1  " fill="black"/>
 <rect x=" 516 " y=" 268 " width=" 9 " height=" 39  " stroke="black" stroke-width=" 1  " fill="black"/>
 <circle cx=" 635 " cy=" 343 " r=" 23  " stroke="cyan" stroke-width=" 1  " fill="purple"/>
 <circle cx=" 137 " cy=" 362 " r=" 13  " stroke="cyan" stroke-width=" 1  " fill="purple"/>
 </svg> 